<svg width="24" height="24" viewBox="0 0 24 19" fill="none" xmlns="http://www.w3.org/2000/svg">
<path d="M1 18V17C1 13.134 4.13401 10 8 10C11.866 10 15 13.134 15 17V18" stroke="#F1F1F1" stroke-width="1.5" stroke-linecap="round"/>
<path d="M13.0002 12C13.0002 9.2386 15.2388 7 18.0002 7C20.7616 7 23.0002 9.2386 23.0002 12V12.5" stroke="#F1F1F1" stroke-width="1.5" stroke-linecap="round"/>
<path d="M7.99976 10C10.2089 10 11.9998 8.2091 11.9998 6C11.9998 3.79086 10.2089 2 7.99976 2C5.79062 2 3.99976 3.79086 3.99976 6C3.99976 8.2091 5.79062 10 7.99976 10Z" stroke="#F1F1F1" stroke-width="1.5" stroke-linecap="round" stroke-linejoin="round"/>
<path d="M18.0002 7C19.6571 7 21.0002 5.65685 21.0002 4C21.0002 2.34315 19.6571 1 18.0002 1C16.3433 1 15.0002 2.34315 15.0002 4C15.0002 5.65685 16.3433 7 18.0002 7Z" stroke="#F1F1F1" stroke-width="1.5" stroke-linecap="round" stroke-linejoin="round"/>
</svg>
